<svg xmlns="http://www.w3.org/2000/svg" viewBox="0 0 48 48">
  <path fill="#000000" d="M32.163,25.367c-0.018-1.749,0.746-3.074,2.299-4.043c-0.868-1.264-2.19-1.944-3.961-2.039c-1.661-0.088-3.471,0.979-4.125,0.979c-0.694,0-2.363-0.935-3.665-0.935c-2.663,0.044-5.238,2.179-5.238,6.557c0,1.749,0.307,3.541,0.921,5.371c0.834,2.39,3.839,8.244,6.99,8.156c1.661-0.044,2.838-1.188,4.982-1.188c2.102,0,3.21,1.188,4.916,1.188c3.196-0.044,5.89-5.502,6.681-7.892c-4.211-1.969-4.211-5.766-4.211-5.766C37.752,25.674,34.875,25.498,32.163,25.367z M29.983,13.325c1.573-1.881,1.397-3.587,1.353-4.175c-1.353,0.088-2.926,0.935-3.839,2.039c-0.834,0.979-1.617,2.478-1.397,3.981C27.513,15.258,28.917,14.543,29.983,13.325z"/>
</svg> 